<?xml version="1.0" encoding="utf-8"?>
<!-- Generator: Adobe Illustrator 24.0.1, SVG Export Plug-In . SVG Version: 6.00 Build 0)  -->
<svg version="1.1" id="Layer_1" xmlns="http://www.w3.org/2000/svg" xmlns:xlink="http://www.w3.org/1999/xlink" x="0px" y="0px"
	 viewBox="0 0 283.46 283.46" style="enable-background:new 0 0 283.46 283.46;" xml:space="preserve">
<style type="text/css">
	.st0{fill:#EC1656;}
</style>
<g>
	<g>
		<g>
			<path class="st0" d="M200.29,171.04L97.29,171.1c-2.16,0-3.9-1.75-3.9-3.9v-58.89c0-2.16,1.75-3.92,3.92-3.92H121
				c2.17,0,3.92,1.76,3.92,3.92v27.33c0,2.17,1.76,3.92,3.92,3.92h39.76c1.95,0,3.71-1.37,4-3.31c0.27-1.77-0.69-3.47-2.29-4.17
				l-19.97-8.77c-1.42-0.62-2.34-2.03-2.34-3.59v-11.42c0-2.16,1.76-3.92,3.92-3.92h48.38c2.14,0,3.87,1.73,3.87,3.87v58.89
				C204.18,169.3,202.44,171.04,200.29,171.04 M212.28,99.09V38.11c0-2.42-2.18-4.27-4.57-3.87l-0.26,0.04
				c-1.89,0.32-3.27,1.95-3.27,3.87v54.22c0,2.16-1.76,3.92-3.92,3.92h-23.7c-2.16,0-3.92-1.76-3.92-3.92v-47.7
				c0-2.42-2.17-4.26-4.55-3.87l-0.26,0.04c-1.9,0.31-3.29,1.95-3.29,3.87v47.66c0,2.16-1.75,3.92-3.92,3.92h-23.69
				c-2.17,0-3.92-1.76-3.92-3.92V51.25c0-2.42-2.17-4.26-4.56-3.87l-0.26,0.04c-1.89,0.31-3.28,1.95-3.28,3.87v41.08
				c0,2.16-1.75,3.92-3.92,3.92H97.3c-2.16,0-3.92-1.76-3.92-3.92V57.83c0-2.42-2.17-4.26-4.56-3.87l-14.36,2.38
				c-1.89,0.31-3.28,1.95-3.28,3.87v129.7c0,2.41,2.16,4.24,4.54,3.85l133.28-14.96c2.22-0.37,3.27-2.09,3.27-3.82V99.09"/>
		</g>
	</g>
	<g>
		<path class="st0" d="M74.61,235.37v-11.62h-3.42v-4.27h3.42v-7.95h5.13v7.95h5.39v4.27h-5.39v11.62c0,1.07,0.77,1.79,1.88,1.79
			h3.72v3.68c-0.77,0.34-2.22,0.6-3.63,0.6C77.43,241.44,74.61,239,74.61,235.37"/>
		<path class="st0" d="M87.64,211.53h5.13v9.53c1.41-1.32,3.72-2.18,5.81-2.18c5.85,0,9.74,3.46,9.74,8.67v13.29h-5.13v-12.69
			c0-2.86-2.09-4.74-5.21-4.74c-3.12,0-5.21,1.88-5.21,4.74v12.69h-5.13V211.53z"/>
		<path class="st0" d="M127.73,227.29c-0.98-2.65-3.16-4.15-6.03-4.15c-2.86,0-5.04,1.5-6.02,4.15H127.73z M110.13,230.16
			c0-6.75,4.61-11.28,11.58-11.28c6.97,0,11.58,4.53,11.58,11.28v0.98l-0.43,0.43h-17.52c0.47,3.38,3.03,5.6,6.37,5.6
			c2.52,0,4.87-1.45,5.86-3.59h5.21c-1.41,4.7-5.85,7.86-11.07,7.86C114.74,241.44,110.13,236.91,110.13,230.16"/>
		<path class="st0" d="M142.78,226.14c0-9.15,6.11-15.21,15.26-15.21c5,0,10.04,3.33,12.61,8.29l-5.34,1.32
			c-1.54-2.69-4.44-4.49-7.26-4.49c-5.73,0-9.53,4.02-9.53,10.09c0,6.11,3.8,10.17,9.53,10.17c3.93,0,7.31-2.78,8.38-6.97h-9.66
			v-5.13h15.6v1.92c0,9.19-5.73,15.3-14.32,15.3C148.89,241.44,142.78,235.33,142.78,226.14"/>
		<rect x="173.72" y="211.53" class="st0" width="5.13" height="29.32"/>
		<g>
			<g>
				<path class="st0" d="M198.6,230.16c0-4.06-2.65-6.75-6.58-6.75c-4.02,0-6.66,2.69-6.66,6.75c0,4.06,2.65,6.75,6.66,6.75
					C195.95,236.91,198.6,234.22,198.6,230.16 M180.22,230.16c0-6.75,4.53-11.28,11.28-11.28c2.61,0,5.47,1.2,7.09,2.95v-10.3h5.13
					v29.32h-5.13v-2.35c-1.62,1.75-4.49,2.95-7.09,2.95C184.75,241.44,180.22,236.91,180.22,230.16"/>
				<path class="st0" d="M209.12,240.86c1.74,0,3.15-1.41,3.15-3.15c0-1.74-1.41-3.15-3.15-3.15c-1.74,0-3.15,1.41-3.15,3.15
					C205.97,239.45,207.38,240.86,209.12,240.86"/>
			</g>
		</g>
	</g>
</g>
</svg>
